<?xml version="1.0" encoding="UTF-8"?>
<svg id="Shadows" xmlns="http://www.w3.org/2000/svg" xmlns:xlink="http://www.w3.org/1999/xlink" viewBox="0 0 1110.928586561673001 1745.088448154780053">
  <defs>
    <style>
      .cls-1 {
        fill: url(#linear-gradient-2);
      }

      .cls-2 {
        fill: url(#linear-gradient-6);
      }

      .cls-3 {
        fill: url(#linear-gradient-10);
      }

      .cls-4 {
        fill: url(#linear-gradient-5);
      }

      .cls-5 {
        fill: url(#linear-gradient-7);
      }

      .cls-6 {
        fill: url(#linear-gradient-9);
      }

      .cls-7 {
        fill: url(#linear-gradient-3);
      }

      .cls-8 {
        fill: url(#linear-gradient);
      }

      .cls-9 {
        fill: url(#linear-gradient-4);
      }

      .cls-10 {
        fill: url(#linear-gradient-8);
      }
    </style>
    <linearGradient id="linear-gradient" x1="554.015018063751995" y1="211.69501839640543" x2="556.507640506606549" y2="1348.330852285451101" gradientUnits="userSpaceOnUse">
      <stop offset="0" stop-color="#007b4a"/>
      <stop offset=".363093907236967" stop-color="#007a4c"/>
      <stop offset=".597596318546893" stop-color="#007855"/>
      <stop offset=".795669233932598" stop-color="#007564"/>
      <stop offset=".972557177531025" stop-color="#007079"/>
      <stop offset="1" stop-color="#00707d"/>
    </linearGradient>
    <linearGradient id="linear-gradient-2" x1="850.011733718405594" y1="658.170098728431185" x2="850.908564549940934" y2="738.073941645192804" gradientUnits="userSpaceOnUse">
      <stop offset="0" stop-color="#006648"/>
      <stop offset=".82862860167607" stop-color="#00664b"/>
      <stop offset="1" stop-color="#00664d"/>
    </linearGradient>
    <linearGradient id="linear-gradient-3" x1="556.66274578959019" y1="28.004330706016844" x2="556.983862584582539" y2="174.433589215768933" gradientUnits="userSpaceOnUse">
      <stop offset="0" stop-color="#006841"/>
      <stop offset=".869590008217162" stop-color="#006841"/>
      <stop offset="1" stop-color="#006841"/>
    </linearGradient>
    <linearGradient id="linear-gradient-4" x1="86.788610784514276" y1="251.200748601849227" x2="88.188030232367637" y2="889.336016793441672" gradientUnits="userSpaceOnUse">
      <stop offset="0" stop-color="#015333"/>
      <stop offset=".4845114702345" stop-color="#015235"/>
      <stop offset=".79704021173044" stop-color="#01503e"/>
      <stop offset="1" stop-color="#014f49"/>
    </linearGradient>
    <linearGradient id="linear-gradient-5" x1="644.913820543373731" y1="823.405309518748254" x2="645.09759695059256" y2="907.20735120665779" gradientUnits="userSpaceOnUse">
      <stop offset="0" stop-color="#006a52"/>
      <stop offset=".805499375065629" stop-color="#006a54"/>
      <stop offset="1" stop-color="#006b57"/>
    </linearGradient>
    <linearGradient id="linear-gradient-6" x1="675.839165049952499" y1="711.065374811882975" x2="676.153625031407614" y2="854.459126348763448" gradientUnits="userSpaceOnUse">
      <stop offset="0" stop-color="#005741"/>
      <stop offset="1" stop-color="#005843"/>
    </linearGradient>
    <linearGradient id="linear-gradient-7" x1="552.604836030838669" y1="1077.557876757793565" x2="552.966324903321492" y2="1242.396802602325806" gradientUnits="userSpaceOnUse">
      <stop offset="0" stop-color="#014f48"/>
      <stop offset=".717621631009873" stop-color="#004f4a"/>
      <stop offset="1" stop-color="#004f4f"/>
    </linearGradient>
    <linearGradient id="linear-gradient-8" x1="319.735346646856669" y1="1224.500897696101674" x2="319.962899067529179" y2="1328.264801517962496" gradientUnits="userSpaceOnUse">
      <stop offset="0" stop-color="#00635f"/>
      <stop offset=".805499375065629" stop-color="#006161"/>
      <stop offset="1" stop-color="#006064"/>
    </linearGradient>
    <linearGradient id="linear-gradient-9" x1="83.941558093333697" y1="1339.686986187642106" x2="87.237017876621763" y2="1620.624932710546545" gradientUnits="userSpaceOnUse">
      <stop offset=".041436464088394" stop-color="#004f4d"/>
      <stop offset=".698525402319364" stop-color="#004c4f"/>
      <stop offset="1" stop-color="#014855"/>
    </linearGradient>
    <linearGradient id="linear-gradient-10" x1="673.919322640480459" y1="1448.049359629758328" x2="675.671953749548152" y2="1597.461161676499842" gradientUnits="userSpaceOnUse">
      <stop offset=".04143646853653" stop-color="#025a5f"/>
      <stop offset=".961465228214981" stop-color="#025761"/>
      <stop offset="1" stop-color="#025762"/>
    </linearGradient>
  </defs>
  <polygon class="cls-8" points="2.770170720090391 133.009900990098686 940.374131116133867 0 1110.928586561673001 93.207920792079676 1110.928586561673001 473.524752475250352 528.621655868602829 556.9306930693092 528.621655868602829 818.910891089115466 590.057299432974105 807.980198019808086 590.176111314152877 684.653465346542362 939.601853888412734 634.752475247531038 1110.928586561673001 728.019801980201009 1109.265220225042867 1613.524752475261266 760.195913294362981 1663.188118811900495 589.238956014633004 1569.523129084460379 588.393933096343972 1434.356435643579971 526.745546025664225 1442.875628427160336 525.898883591393314 1695.742574257441447 171.352577542542349 1745.088448154780053 0 1651.921113920991047 .255873480620721 1271.687353534291105 466.492942997318096 1204.930693069311019 466.492942997318096 1071.029702970301514 172.789972700289582 1111.425742574259857 .987992502268753 1017.801980198029923 2.770170720090391 133.009900990098686"/>
  <g>
    <polygon class="cls-1" points="590.176111314152877 684.653465346542362 761.978091512173705 776.970297029711219 1110.928586561673001 728.019801980201009 939.601853888412734 634.752475247531038 590.176111314152877 684.653465346542362"/>
    <polygon class="cls-7" points="2.770170720090391 133.009900990098686 174.21571527454762 226.277227722779571 1110.928586561673001 93.207920792079676 940.374131116133867 0 2.770170720090391 133.009900990098686"/>
    <polygon class="cls-9" points="2.770170720090391 133.009900990098686 174.21571527454762 226.277227722779571 172.789972700289582 1111.425742574259857 .987992502268753 1017.801980198029923 2.770170720090391 133.009900990098686"/>
    <polygon class="cls-4" points="528.621655868602829 818.910891089115466 590.057299432974105 807.980198019808086 761.978091512173705 904.217821782191095 528.275121215143372 936.653465346551457 528.621655868602829 818.910891089115466"/>
    <polygon class="cls-2" points="590.176111314152877 684.653465346542362 590.057299432974105 807.980198019808086 761.978091512173705 904.217821782191095 761.978091512173705 776.970297029711219 590.176111314152877 684.653465346542362"/>
    <polygon class="cls-5" points="466.492942997318096 1071.029702970301514 638.294923195344381 1046.792079207931238 639.483042007223048 1299.623762376260856 466.492942997318096 1204.930693069311019 466.492942997318096 1071.029702970301514"/>
    <polygon class="cls-10" points="466.492942997318096 1204.930693069311019 639.483042007223048 1299.623762376260856 171.839477650784829 1364.732673267330028 .255873480620721 1271.687353534291105 466.492942997318096 1204.930693069311019"/>
    <polygon class="cls-6" points=".255873480620721 1271.687353534291105 171.839477650784829 1364.732673267330028 171.352577542542349 1745.088448154780053 0 1651.921113920991047 .255873480620721 1271.687353534291105"/>
    <polygon class="cls-3" points="588.393933096343972 1434.356435643579971 759.720665769593325 1410.356435643570876 760.195913294362981 1663.188118811900495 589.106804383452982 1570.0396039604002 588.393933096343972 1434.356435643579971"/>
  </g>
</svg>